# xmcd
#
# Track frame offsets: 
#        150
#        30233
#        52085
#        79245
#        106970
#        129000
#        164443
#        187243
#        209488
#        237248
#
# Disc length: 3410 seconds
#
# Revision: 0
# Processed by: cddbd v1.5.2PL0 Copyright (c) Steve Scherf et al.
# Submitted via: ExactAudioCopy v1.0b3
#
DISCID=840d500a
DTITLE=Ngoc Son - Giot Nang Ben Them
DYEAR=1991
DGENRE=
TTITLE0=Co hang xom
TTITLE1=Chuyen tinh cua bien
TTITLE2=Noi buon
TTITLE3=Chuyen ba nguoi
TTITLE4=Gian hon
TTITLE5=Gui gio cho may ngan bay
TTITLE6=Tinh xa
TTITLE7=Phia toi tam hon toi
TTITLE8=Hoa vang may do
TTITLE9=Giot nang ben them
EXTD=
EXTT0=
EXTT1=
EXTT2=
EXTT3=
EXTT4=
EXTT5=
EXTT6=
EXTT7=
EXTT8=
EXTT9=
PLAYORDER=
